<svg viewBox="0 0 64 67" fill="none" xmlns="http://www.w3.org/2000/svg">
  <path d="M61.7374 26.5C60.4878 26.5 59.4748 27.513 59.4748 28.7626C59.4748 47.3814 44.3814 62.4748 25.7626 62.4748C24.513 62.4748 23.5 63.4878 23.5 64.7374C23.5 65.987 24.513 67 25.7626 67C46.8805 67 64 49.8805 64 28.7626C64 27.513 62.987 26.5 61.7374 26.5Z" fill="#005EB8"/>
  <path d="M48.0814 41C50.2572 37.4505 52.3615 32.7178 51.9475 26.0921C51.0899 12.3673 38.6589 1.95537 26.9206 3.08373C22.3253 3.52547 17.6068 7.2712 18.026 13.9805C18.2082 16.8961 19.6352 18.6169 21.9544 19.9399C24.1618 21.1992 26.9978 21.9969 30.2128 22.9011C34.0962 23.9934 38.6009 25.2203 42.0631 27.7717C46.2125 30.8296 49.0491 34.3743 48.0814 41Z" fill="#003B5C"/>
  <path d="M5.5 40.5C6.74 40.5 7.75 39.49 7.75 38.24C7.75 19.62 22.84 4.53 41.46 4.53C42.71 4.53 43.72 3.51 43.72 2.26C43.72 1.01 42.71 0 41.46 0C20.34 0 3.22 17.12 3.22 38.24C3.22 39.49 4.26 40.5 5.5 40.5Z" fill="#005EB8"/>
  <path d="M19.14 26C16.97 29.55 14.86 34.28 15.28 40.91C16.13 54.63 28.56 65.04 40.3 63.92C44.9 63.47 49.62 59.73 49.2 53.02C49.01 50.1 47.59 48.38 45.27 47.06C43.06 45.8 40.22 45 37.01 44.1C33.12 43.01 28.62 41.78 25.16 39.23C21.01 36.17 18.17 32.63 19.14 26Z" fill="#003B5C"/>
</svg>
