<svg xmlns="http://www.w3.org/2000/svg" viewBox="0 0 64 64">
  <circle cx="32" cy="32" r="30" fill="#003B5C"/>
  <path d="M48 27c-.7-8-7.5-14-15-13.2-3 .3-6 2.5-5.7 6.5.1 1.7 1 2.9 2.4 3.7 1.4.8 3.2 1.3 5.2 2 2.5.7 5.4 1.5 7.6 3.1 2.7 2 4.5 4.3 3.8 8.9 1.4-2.3 2.7-5.4 2.5-9.5" fill="#fff" opacity=".9"/>
  <path d="M16 37c.7 8 7.5 14 15 13.2 3-.3 6-2.5 5.7-6.5-.1-1.7-1-2.9-2.4-3.7-1.4-.8-3.2-1.3-5.2-2-2.5-.7-5.4-1.5-7.6-3.1-2.7-2-4.5-4.3-3.8-8.9-1.4 2.3-2.7 5.4-2.5 9.5" fill="#fff" opacity=".9"/>
  <path d="M52 25.5c-.7 0-1.3.6-1.3 1.3 0 10.8-8.8 19.5-19.5 19.5-.7 0-1.3.6-1.3 1.3s.6 1.3 1.3 1.3c12.2 0 22.1-9.9 22.1-22.1 0-.7-.6-1.3-1.3-1.3z" fill="#0085B8"/>
  <path d="M12 38.5c.7 0 1.3-.6 1.3-1.3 0-10.8 8.8-19.5 19.5-19.5.7 0 1.3-.6 1.3-1.3s-.6-1.3-1.3-1.3C20.6 15.1 10.7 25 10.7 37.2c0 .7.6 1.3 1.3 1.3z" fill="#0085B8"/>
</svg>
